# xmcd
#
# Track frame offsets: 
#        150
#        17897
#        31992
#        47002
#        63803
#        77555
#        92470
#        109907
#        127682
#        141199
#        153833
#
# Disc length: 2241 seconds
#
# Revision: 0
# Processed by: cddbd v1.5.2PL0 Copyright (c) Steve Scherf et al.
# Submitted via: ExactAudioCopy v0.95a4
#
DISCID=7b08bf0b
DTITLE=Joao Lopes - Bicho do Parana - Acustico
DYEAR=2004
DGENRE=Acoustic
TTITLE0=Falar de amor
TTITLE1=Caboclo
TTITLE2=Bicho do Parana
TTITLE3=Devoto
TTITLE4=O homem e a natureza
TTITLE5=Cheiro do mato
TTITLE6=Pe vermelho
TTITLE7=A minha vida
TTITLE8=Morar na roca
TTITLE9=Verdura
TTITLE10=Blowing in the wind
EXTD=
EXTT0=
EXTT1=
EXTT2=
EXTT3=
EXTT4=
EXTT5=
EXTT6=
EXTT7=
EXTT8=
EXTT9=
EXTT10=
PLAYORDER=
